<svg preserveAspectRatio="none" width="100%" height="100%" overflow="visible" style="display: block;" viewBox="0 0 35 35" fill="none" xmlns="http://www.w3.org/2000/svg">
<g id="google-icon-logo-svgrepo-com 1" clip-path="url(#clip0_0_6)">
<path id="Vector" d="M34.5829 17.8274C34.5829 16.3935 34.4666 15.3471 34.2148 14.262H17.8406V20.734H27.4519C27.2582 22.3424 26.2118 24.7646 23.8864 26.3923L23.8538 26.6089L29.031 30.6197L29.3897 30.6555C32.6839 27.6131 34.5829 23.1369 34.5829 17.8274Z" fill="var(--fill-0, #4285F4)"/>
<path id="Vector_2" d="M17.8407 34.8798C22.5494 34.8798 26.5024 33.3295 29.3897 30.6555L23.8864 26.3923C22.4138 27.4193 20.4372 28.1363 17.8407 28.1363C13.2288 28.1363 9.31454 25.0941 7.91922 20.8891L7.7147 20.9065L2.33137 25.0727L2.26097 25.2684C5.12884 30.9654 11.0197 34.8798 17.8407 34.8798Z" fill="var(--fill-0, #34A853)"/>
<path id="Vector_3" d="M7.91922 20.8891C7.55105 19.804 7.33798 18.6412 7.33798 17.4399C7.33798 16.2384 7.55105 15.0758 7.89985 13.9906L7.8901 13.7595L2.43931 9.52641L2.26097 9.61124C1.07899 11.9753 0.400763 14.6301 0.400763 17.4399C0.400763 20.2496 1.07899 22.9043 2.26097 25.2684L7.91922 20.8891Z" fill="var(--fill-0, #FBBC05)"/>
<path id="Vector_4" d="M17.8406 6.74338C21.1154 6.74338 23.3244 8.15794 24.584 9.34006L29.5059 4.53437C26.4831 1.72462 22.5494 1.56462e-07 17.8406 1.56462e-07C11.0197 1.56462e-07 5.12884 3.91426 2.26097 9.61124L7.89985 13.9906C9.31454 9.78571 13.2288 6.74338 17.8406 6.74338Z" fill="var(--fill-0, #EB4335)"/>
</g>
<defs>
<clipPath id="clip0_0_6">
<rect width="35" height="35" fill="white"/>
</clipPath>
</defs>
</svg>
